PathFileType	4	(X/Y/Z)	/Users/itak/Documents/Research/Walk-IL/dataset/trc/00213_00009.trc
DataRate	CameraRate	NumFrames	NumMarkers	Units	OrigDataRate	OrigDataStartFrame	OrigNumFrames
100.000000	100.000000	4	55	mm	100.000000	365	418
Frame#	Time	RPSI			LPSI			L3			STRN			T10			C7			CLAV			RBAK			LBAK			LSHO			LUPA			LAEL			LAOL			LWTS			LWPS			LFRA			LIFD			LHPS			LHTS			RSHO			RUPA			RAEL			RAOL			RWTS			RWPS			RFRA			RIFD			RHTS			RHPS			RBHD			LFHD			RFHD			LBHD			LHIP			RHIP			RASI			LASI			LKNE			LTHI			LANK			LTIP			LTOE			LMT1			LMT5			LHEE			RKNE			RTHI			RANK			RTIP			RTOE			RMT1			RMT5			RHEE			*53			*54			
		X1	Y1	Z1	X2	Y2	Z2	X3	Y3	Z3	X4	Y4	Z4	X5	Y5	Z5	X6	Y6	Z6	X7	Y7	Z7	X8	Y8	Z8	X9	Y9	Z9	X10	Y10	Z10	X11	Y11	Z11	X12	Y12	Z12	X13	Y13	Z13	X14	Y14	Z14	X15	Y15	Z15	X16	Y16	Z16	X17	Y17	Z17	X18	Y18	Z18	X19	Y19	Z19	X20	Y20	Z20	X21	Y21	Z21	X22	Y22	Z22	X23	Y23	Z23	X24	Y24	Z24	X25	Y25	Z25	X26	Y26	Z26	X27	Y27	Z27	X28	Y28	Z28	X29	Y29	Z29	X30	Y30	Z30	X31	Y31	Z31	X32	Y32	Z32	X33	Y33	Z33	X34	Y34	Z34	X35	Y35	Z35	X36	Y36	Z36	X37	Y37	Z37	X38	Y38	Z38	X39	Y39	Z39	X40	Y40	Z40	X41	Y41	Z41	X42	Y42	Z42	X43	Y43	Z43	X44	Y44	Z44	X45	Y45	Z45	X46	Y46	Z46	X47	Y47	Z47	X48	Y48	Z48	X49	Y49	Z49	X50	Y50	Z50	X51	Y51	Z51	X52	Y52	Z52	X53	Y53	Z53	X54	Y54	Z54	X55	Y55	Z55	

366	3.65	810.055908203125	1038.363525390625	-127.5828323364258	810.1076049804688	1045.684692382812	-247.8622436523438	802.920166015625	1126.867309570312	-200.2356719970703	1046.107421875	1326.133422851562	-198.1188507080078	795.5084838867188	1254.585327148438	-187.2720336914062	842.2762451171875	1517.431030273438	-177.5115966796875	1012.136291503906	1441.837158203125	-188.4283752441406	777.023193359375	1371.111328125	-105.3207168579102	815.646484375	1484.97021484375	-284.8572692871094	901.6284790039062	1492.143798828125	-347.3150634765625	856.18359375	1378.107299804688	-426.0657043457031	843.8727416992188	1172.766235351562	-463.32470703125	782.6353149414062	1158.68701171875	-401.5372314453125	908.3844604492188	923.8870239257812	-448.7873840332031	863.8257446289062	922.21435546875	-520.1298217773438	847.669677734375	1066.847534179688	-489.8856811523438	879.1796264648438	731.6864624023438	-485.7467651367188	866.2489624023438	833.9374389648438	-530.9707641601562	891.2357177734375	854.3218994140625	-474.7589111328125	910.4400024414062	1471.961547851562	-14.94506072998047	898.5294189453125	1407.730346679688	52.31623458862305	909.4661865234375	1127.769287109375	97.68654632568359	869.0284423828125	1114.584350585938	12.7715368270874	1083.567749023438	949.3207397460938	37.10227203369141	1041.965454101562	920.6072387695312	104.3372268676758	950.7974853515625	1064.936279296875	107.0139694213867	1146.290771484375	766.6434936523438	24.05799865722656	1153.99072265625	842.7840576171875	46.35464477539062	1107.193115234375	827.49560546875	99.35108184814453	865.0614624023438	1666.854858398438	-124.9708786010742	1064.261352539062	1729.9970703125	-213.8821868896484	1062.6943359375	1724.023681640625	-114.164665222168	911.2215576171875	1684.28369140625	-255.8798522949219	916.7183837890625	989.2823486328125	-386.4111022949219	910.3380737304688	999.9866943359375	-19.33398628234863	1002.039001464844	1047.420288085938	-54.9493293762207	1014.613952636719	1038.839965820312	-336.7035827636719	1045.924072265625	512.5880737304688	-366.2171936035156	1014.615051269531	655.9736328125	-384.021240234375	769.9067993164062	101.1175842285156	-352.2928466796875	909.234130859375	323.1484375	-369.4095764160156	975.5154418945312	53.50644302368164	-316.3186340332031	913.6947631835938	63.03658676147461	-269.1663208007812	886.61962890625	60.2830696105957	-379.2719421386719	719.8065185546875	132.5682678222656	-297.732177734375	986.9786987304688	512.2565307617188	-70.44751739501953	983.3555908203125	780.1244506835938	-20.62428665161133	909.0999755859375	31.87099266052246	-106.2486877441406	997.060791015625	391.7536926269531	-93.46079254150391	1122.953857421875	30.27946853637695	-154.5940399169922	1062.5439453125	29.32631492614746	-194.9400482177734	1019.203186035156	28.08234405517578	-81.00643920898438	846.2529907226562	32.26656341552734	-161.328369140625	nan	nan	nan	nan	nan	nan	
367	3.66	813.343994140625	1038.6689453125	-128.3483734130859	813.4133911132812	1046.146362304688	-248.7575531005859	805.9661865234375	1127.190795898438	-200.6270141601562	1049.88525390625	1326.275268554688	-198.5054779052734	799.3859252929688	1254.89599609375	-187.3892669677734	846.1951904296875	1517.694213867188	-177.7026977539062	1015.960388183594	1441.958740234375	-188.8342895507812	780.7998657226562	1371.467041015625	-105.4475021362305	819.47119140625	1485.140869140625	-284.9010925292969	905.25244140625	1492.344482421875	-347.6467590332031	858.834228515625	1378.4560546875	-426.2497863769531	843.9293212890625	1173.431518554688	-463.2470703125	783.9889526367188	1159.7255859375	-400.1864929199219	903.7403564453125	922.893798828125	-452.1937561035156	857.5366821289062	923.2005615234375	-522.51220703125	845.4410400390625	1067.847534179688	-490.5841369628906	865.9837036132812	731.9573974609375	-489.6293640136719	856.4408569335938	834.9646606445312	-533.926513671875	881.931396484375	855.0615234375	-477.8812255859375	914.5512084960938	1472.095947265625	-15.18319606781006	902.6776123046875	1407.936767578125	52.03740310668945	914.5272827148438	1128.017333984375	97.7110595703125	873.8822631835938	1114.579345703125	12.91401195526123	1090.103881835938	951.4864501953125	36.27680969238281	1048.89208984375	921.9609985351562	103.4650421142578	956.339111328125	1065.450561523438	106.8239669799805	1155.481079101562	769.8487548828125	22.58026885986328	1162.033569335938	846.0060424804688	45.2116813659668	1115.4208984375	829.7783203125	98.11520385742188	869.1051025390625	1667.150268554688	-125.2939834594727	1068.412841796875	1730.09765625	-214.2581329345703	1066.840454101562	1724.136474609375	-114.5083465576172	915.3040771484375	1684.497924804688	-256.2113037109375	920.9562377929688	989.636962890625	-386.8153991699219	913.0865478515625	1000.103271484375	-19.67097663879395	1004.995300292969	1047.558837890625	-55.06411743164062	1018.581481933594	1038.959716796875	-336.6345520019531	1049.6162109375	512.8568115234375	-364.5868225097656	1018.407409667969	656.122802734375	-383.0306701660156	783.4791259765625	94.71501159667969	-352.5049438476562	916.923828125	320.3388671875	-368.8488464355469	990.5474243164062	54.14599227905273	-315.4815063476562	928.0037231445312	61.38355255126953	-268.5208740234375	901.6279907226562	58.0305290222168	-378.7794189453125	731.932861328125	124.5235366821289	-298.3858642578125	988.0213012695312	512.1885986328125	-70.47776794433594	985.4862060546875	780.0979614257812	-20.89502143859863	909.1361083984375	31.95568084716797	-106.3127288818359	997.7709350585938	391.677490234375	-93.51908111572266	1122.963256835938	30.26139450073242	-154.5689392089844	1062.576416015625	29.31319046020508	-194.9666595458984	1019.199523925781	28.07995986938477	-81.008056640625	846.200927734375	32.45190048217773	-161.3919830322266	nan	nan	nan	nan	nan	nan	
368	3.67	816.5552978515625	1038.9501953125	-129.1280822753906	816.6989135742188	1046.57177734375	-249.6546630859375	808.9638061523438	1127.485107421875	-201.074462890625	1053.531127929688	1326.407592773438	-198.8636779785156	803.0642700195312	1255.174072265625	-187.6234893798828	849.9737548828125	1517.938720703125	-178.0239410400391	1019.633666992188	1442.0556640625	-189.2346343994141	784.3999633789062	1371.783325195312	-105.7324600219727	823.2260131835938	1485.304809570312	-285.0945129394531	908.8905029296875	1492.553955078125	-348.0359802246094	861.5903930664062	1378.886596679688	-426.6145935058594	844.204345703125	1174.201049804688	-463.3921813964844	785.3441162109375	1160.853881835938	-399.3243713378906	899.4351196289062	922.2402954101562	-455.3448791503906	851.9653930664062	924.3853149414062	-524.7691650390625	843.6229858398438	1068.963623046875	-491.4028625488281	853.4027099609375	732.8005981445312	-492.8238525390625	847.4483642578125	836.28759765625	-536.5313110351562	873.4428100585938	856.0968017578125	-480.6526184082031	918.4241943359375	1472.229614257812	-15.48782825469971	906.5440673828125	1408.13623046875	51.67138290405273	919.3269653320312	1128.249633789062	97.56922149658203	878.448974609375	1114.589599609375	12.84041595458984	1096.275024414062	953.5257568359375	35.37311935424805	1055.447875976562	923.2762451171875	102.5274505615234	961.5931396484375	1065.948852539062	106.490478515625	1164.061645507812	772.863037109375	21.10875701904297	1169.58056640625	849.0294189453125	44.03029632568359	1123.15576171875	831.961669921875	96.85869598388672	872.9873657226562	1667.423583984375	-125.7093124389648	1072.388061523438	1730.190307617188	-214.6989135742188	1070.795043945312	1724.255981445312	-114.9179382324219	919.223388671875	1684.67724609375	-256.6297302246094	925.1287231445312	989.9717407226562	-387.2286682128906	915.4140014648438	1000.260803222656	-20.10361671447754	1007.8720703125	1047.700439453125	-55.198486328125	1022.46240234375	1039.05078125	-336.563720703125	1052.732177734375	512.9852905273438	-362.9562377929688	1021.795104980469	656.1765747070312	-382.1122741699219	796.8326416015625	88.42111206054688	-352.3912658691406	924.2022094726562	317.4478454589844	-368.1522521972656	1005.167175292969	54.90714645385742	-314.6530151367188	942.0440063476562	59.81161880493164	-267.7728881835938	916.23583984375	55.96451568603516	-378.1238403320312	743.9458618164062	116.4541015625	-298.6326293945312	989.188232421875	512.1433715820312	-70.56304168701172	987.6563110351562	780.0919189453125	-21.15360450744629	909.20361328125	32.05467224121094	-106.3820190429688	998.5650024414062	391.5992431640625	-93.61977386474609	1122.975708007812	30.24294471740723	-154.5413970947266	1062.626831054688	29.32310104370117	-195.0195465087891	1019.198425292969	28.07816886901855	-81.01097106933594	846.1461181640625	32.66758728027344	-161.4574737548828	nan	nan	nan	nan	nan	nan	
369	3.68	819.68310546875	1039.20068359375	-129.9354248046875	819.9913330078125	1046.947998046875	-250.5542144775391	811.9345703125	1127.757690429688	-201.5946350097656	1057.039672851562	1326.523803710938	-199.1919097900391	806.5540161132812	1255.428344726562	-187.9937896728516	853.6141967773438	1518.165771484375	-178.4744262695312	1023.156066894531	1442.124267578125	-189.6282196044922	787.82763671875	1372.069213867188	-106.17333984375	826.9149780273438	1485.4697265625	-285.438720703125	912.5455932617188	1492.767333984375	-348.4843444824219	864.4590454101562	1379.39306640625	-427.1607666015625	844.7091674804688	1175.054565429688	-463.7631225585938	786.694580078125	1162.06884765625	-398.937744140625	895.5123901367188	921.8809814453125	-458.2154846191406	847.1448974609375	925.7036743164062	-526.9111328125	842.2211303710938	1070.1572265625	-492.3435974121094	841.595947265625	734.145751953125	-495.369384765625	839.3374633789062	837.8197631835938	-538.8115234375	865.8357543945312	857.3414306640625	-483.0994567871094	922.0596923828125	1472.365356445312	-15.86219692230225	910.13671875	1408.330322265625	51.22190475463867	923.8514404296875	1128.46630859375	97.25385284423828	882.73876953125	1114.621337890625	12.546217918396	1102.082153320312	955.431640625	34.40052032470703	1061.628173828125	924.5477294921875	101.5311660766602	966.5560302734375	1066.429321289062	106.0144348144531	1172.014526367188	775.6595458984375	19.65294647216797	1176.619873046875	851.8286743164062	42.81869888305664	1130.372802734375	834.026123046875	95.58395385742188	876.7164306640625	1667.674438476562	-126.2129898071289	1076.189697265625	1730.271484375	-215.199462890625	1074.5625	1724.381103515625	-115.3920288085938	922.986083984375	1684.819213867188	-257.1316223144531	929.2381591796875	990.2713623046875	-387.6537170410156	917.3587036132812	1000.452819824219	-20.62439918518066	1010.673706054688	1047.842407226562	-55.34946441650391	1026.261108398438	1039.113159179688	-336.4934997558594	1055.296142578125	512.9715576171875	-361.3328552246094	1024.78955078125	656.1336059570312	-381.2701721191406	809.9215087890625	82.24983215332031	-351.9811706542969	931.0709838867188	314.4854125976562	-367.3234252929688	1019.29541015625	55.75358963012695	-313.6278686523438	955.7133178710938	58.37019348144531	-266.7863464355469	930.4263916015625	54.01239013671875	-377.2008361816406	755.7740478515625	108.4390563964844	-298.542724609375	990.4769287109375	512.1232299804688	-70.69699096679688	989.8716430664062	780.1109619140625	-21.39839172363281	909.3001098632812	32.17087554931641	-106.4599075317383	999.45166015625	391.5313720703125	-93.75436401367188	1122.98974609375	30.22190475463867	-154.5118713378906	1062.692993164062	29.35049819946289	-195.0867156982422	1019.200134277344	28.07562828063965	-81.01605987548828	846.1019897460938	32.91336441040039	-161.5230407714844	nan	nan	nan	nan	nan	nan	
